<svg viewBox="0 0 48 48" xml:space="preserve" xmlns="http://www.w3.org/2000/svg"><path d="M23 48.049a.996.996 0 0 1-.43-.097l-21-10a1 1 0 0 1-.57-.903v-31a1.002 1.002 0 0 1 1.43-.903L23 14.941l20.57-9.796a1 1 0 0 1 1.43.904v31a1 1 0 0 1-.57.903l-21 10a.996.996 0 0 1-.43.097zM3 36.417l20 9.524 20-9.524V7.633l-19.57 9.319a1.002 1.002 0 0 1-.859 0L3 7.633v28.784z" fill="#91da32" class="fill-000000"></path><path d="M23 12.204 5.567 3.903a1 1 0 0 1 .86-1.807L23 9.989l16.573-7.893a1 1 0 0 1 .86 1.807L23 12.204zM22 16.049h2v31h-2z" fill="#91da32" class="fill-000000"></path></svg>