<svg id="Layer_1" version="1.1" viewBox="0 0 30 30" xml:space="preserve" xmlns="http://www.w3.org/2000/svg"><path d="M8.5 27h-2c-.8 0-1.5-.7-1.5-1.5V24h5v1.5c0 .8-.7 1.5-1.5 1.5zM25 25.5V24h-5v1.5c0 .8.7 1.5 1.5 1.5h2c.8 0 1.5-.7 1.5-1.5zm2-10.9V22H3v-7.4c0-1 .7-1.8 1.6-2l.9-.2.6-4.4C6.4 6.3 8 5 10 5h10c1.9 0 3.6 1.3 3.8 3l.7 4.5.9.2c.9.2 1.6 1 1.6 1.9zM10 17c0-1.1-.9-2-2-2s-2 .9-2 2 .9 2 2 2 2-.9 2-2zm9.9-5h1.5l-.5-3.5c0-.2-.4-.5-.9-.5H10c-.5 0-.9.3-.9.5L8.6 12h6.5c.2-1.1 1.2-2 2.4-2s2.2.9 2.4 2zm4.1 5c0-1.1-.9-2-2-2s-2 .9-2 2 .9 2 2 2 2-.9 2-2z" fill="#91da32" class="fill-41a6f9"></path></svg>