<svg viewBox="0 0 128 128" xml:space="preserve" xmlns="http://www.w3.org/2000/svg"><path d="M35.491 98.938c-11.846 0-21.483-9.638-21.483-21.484 0-11.846 9.637-21.482 21.483-21.482 11.847 0 21.484 9.637 21.484 21.482.001 11.846-9.637 21.484-21.484 21.484zm0-38.967c-9.64 0-17.483 7.843-17.483 17.482 0 9.641 7.844 17.484 17.483 17.484 9.641 0 17.484-7.844 17.484-17.484.001-9.64-7.843-17.482-17.484-17.482zM92.346 98.938c-11.846 0-21.483-9.638-21.483-21.484 0-11.846 9.638-21.482 21.483-21.482 11.847 0 21.484 9.637 21.484 21.482 0 11.846-9.638 21.484-21.484 21.484zm0-38.967c-9.641 0-17.483 7.843-17.483 17.482 0 9.641 7.843 17.484 17.483 17.484s17.484-7.844 17.484-17.484-7.844-17.482-17.484-17.482z" fill="#91da32" class="fill-000000"></path><path d="M17.976 70.566a1.999 1.999 0 0 1-1.894-2.644l10.964-32.196c1.24-4.928 7.281-7.728 13.519-6.25a2 2 0 0 1-.922 3.892c-4.068-.964-8.066.584-8.729 3.379l-.053.184-10.992 32.28a2 2 0 0 1-1.893 1.355zM109.714 70.566a2.002 2.002 0 0 1-1.894-1.355L96.773 36.748c-.301-1.272-1.3-2.336-2.812-2.997-1.709-.746-3.812-.88-5.917-.382a2 2 0 1 1-.922-3.892c2.944-.697 5.94-.481 8.439.609 2.657 1.161 4.457 3.161 5.079 5.642l10.966 32.195a2 2 0 0 1-1.892 2.643zM72.86 79.454a1.98 1.98 0 0 1-.906-.219c-.026-.013-3.361-1.651-8.243-1.651-4.813 0-7.711 1.588-7.738 1.604a2 2 0 1 1-1.994-3.467c.152-.087 3.785-2.136 9.732-2.136 5.894 0 9.893 2.002 10.06 2.088a2 2 0 0 1-.911 3.781z" fill="#91da32" class="fill-000000"></path></svg>